<svg id="Layer_1" height="512" viewBox="0 0 150 150" width="512" xmlns="http://www.w3.org/2000/svg" data-name="Layer 1"><path d="m130.563 115h-111.126a8.436 8.436 0 0 1 -3.821-15.958l59.384-30.164 59.384 30.164a8.436 8.436 0 0 1 -3.821 15.958zm-55.563-43.879-58.479 29.7a6.437 6.437 0 0 0 2.916 12.179h111.126a6.437 6.437 0 0 0 2.916-12.175z"/><path d="m75 71a1 1 0 0 1 -1-1v-.657a14.328 14.328 0 0 1 6.879-12.043 11.058 11.058 0 0 0 5.113-9.728 11.175 11.175 0 0 0 -10.563-10.564 11 11 0 0 0 -11.429 10.992 1 1 0 0 1 -2 0 13 13 0 0 1 13.5-12.991 13 13 0 0 1 6.45 23.979 12.338 12.338 0 0 0 -5.95 10.355v.657a1 1 0 0 1 -1 1z"/></svg>