<svg id="Layer_1" height="512" viewBox="0 0 150 150" width="512" xmlns="http://www.w3.org/2000/svg" data-name="Layer 1"><path d="m98.749 139a1 1 0 0 1 -.946-1.325 83.133 83.133 0 0 0 4.197-26.675c0-15.363-3.895-36.723-10.431-46.375h-33.138c-6.531 9.65-10.431 31.01-10.431 46.375a83.133 83.133 0 0 0 4.2 26.676 1 1 0 0 1 -1.892.649 85.169 85.169 0 0 1 -4.308-27.325c0-15.9 4.149-38.19 11.093-47.954l.3-.421h35.215l.3.421c6.943 9.762 11.092 32.048 11.092 47.954a85.169 85.169 0 0 1 -4.3 27.323 1 1 0 0 1 -.951.677z"/><path d="m92.6 64.623h-35.185l-.3-.416c-.432-.6-10.576-15.023-9.867-42.681a2.029 2.029 0 0 1 .964-1.667l12.782-8.545a2 2 0 0 1 3.075 1.686v4.5c0 6.342 4.908 11.5 10.941 11.5s10.94-5.16 10.94-11.5v-4.5a2 2 0 0 1 3.038-1.709l12.84 8.581a2.028 2.028 0 0 1 .943 1.654c.709 27.658-9.435 42.081-9.867 42.681zm-34.141-2h33.097c1.627-2.543 9.841-16.648 9.216-41.046l-.041-.032-12.817-8.568.036 4.523c0 7.444-5.805 13.5-12.94 13.5s-12.941-6.058-12.941-13.5v-4.5l-12.781 8.545c-.663 24.427 7.548 38.535 9.175 41.078z"/><path d="m98.748 139a.992.992 0 0 1 -.531-.153c-45.753-28.747-41.334-74.869-41.284-75.331a1 1 0 0 1 1.988.214c-.048.451-4.3 45.356 40.36 73.422a1 1 0 0 1 -.533 1.848z"/><path d="m51.25 139a1 1 0 0 1 -.231-1.972c16.914-4.04 20.155-23.977 20.186-24.179a1 1 0 0 1 1.977.3c-.033.215-3.461 21.467-21.7 25.823a.981.981 0 0 1 -.232.028z"/></svg>