<svg height="512" viewBox="0 0 32 32" width="512" xmlns="http://www.w3.org/2000/svg"><g id="fast_shipping"><g><g><path d="m2 25v-20h20v3h2.5c.8271484 0 1.7729492.6147461 2.109375 1.3701172l3.390625 7.6298828v8z" fill="#e3f2fd"/><g fill="#90caf9"><circle cx="8" cy="25" r="2"/><circle cx="25" cy="25" r="2"/></g></g><path d="m7 10h-6v-2h6zm0-6h-6v2h6zm0 8h-6v2h6zm0 4h-6v2h6zm-2 4h-4v2h4zm16-9v6h5v-2h-3v-4zm10 15h-3.184082c-.4145508 1.1616211-1.5141602 2-2.815918 2s-2.4013672-.8383789-2.8154297-2h-11.3686523c-.4145508 1.1616211-1.5141602 2-2.815918 2s-2.4013672-.8383789-2.8154297-2h-4.1845703v-2h4.184082c.4145508-1.1616211 1.5141602-2 2.815918-2s2.4013672.8383789 2.815918 2h11.368164c.4145508-1.1616211 1.5141602-2 2.815918-2s2.4013672.8383789 2.815918 2h1.184082v-6.7875977l-3.3046875-7.4355469c-.1743164-.3920898-.7666016-.7768554-1.1953125-.7768554h-3.5v-3h-12v-2h14v3h1.5c1.2250977 0 2.5249023.8442383 3.0229492 1.9638672l3.4770508 7.8237305zm-22-1c0-.5512695-.4487305-1-1-1s-1 .4487305-1 1 .4487305 1 1 1 1-.4487305 1-1zm17 0c0-.5512695-.4487305-1-1-1s-1 .4487305-1 1 .4487305 1 1 1 1-.4487305 1-1z" fill="#42a5f5"/></g></g></svg>