<svg id="Layer_1" height="512" viewBox="0 0 150 150" width="512" xmlns="http://www.w3.org/2000/svg" data-name="Layer 1"><path d="m75 139a64 64 0 1 1 64-64 64.072 64.072 0 0 1 -64 64zm0-126a62 62 0 1 0 62 62 62.07 62.07 0 0 0 -62-62z"/><path d="m75 95a20 20 0 1 1 20-20 20.023 20.023 0 0 1 -20 20zm0-38a18 18 0 1 0 18 18 18.021 18.021 0 0 0 -18-18z"/><path d="m75 44a9 9 0 1 1 9-9 9.01 9.01 0 0 1 -9 9zm0-16a7 7 0 1 0 7 7 7.009 7.009 0 0 0 -7-7z"/><path d="m49.3 53.354a8.994 8.994 0 1 1 5.778-2.1 8.982 8.982 0 0 1 -5.778 2.1zm-.012-15.993a7 7 0 1 0 5.368 2.5 6.971 6.971 0 0 0 -5.373-2.5z"/><path d="m35.628 77.057a9.033 9.033 0 0 1 -1.583-.14 9 9 0 1 1 3.126-17.726 9 9 0 0 1 -1.543 17.866zm-.035-16a7 7 0 1 0 6.907 8.213 7.011 7.011 0 0 0 -5.679-8.11 7.114 7.114 0 0 0 -1.228-.107z"/><path d="m40.375 104a9 9 0 0 1 -4.516-16.792 9 9 0 1 1 4.516 16.792zm-.027-16a6.959 6.959 0 0 0 -3.489.941 7 7 0 1 0 5.312-.7 7.063 7.063 0 0 0 -1.823-.241z"/><path d="m61.31 121.588a9 9 0 1 1 8.466-5.922 8.944 8.944 0 0 1 -8.466 5.922zm0-16a7.011 7.011 0 0 0 -6.573 4.609 6.988 6.988 0 1 0 6.573-4.609z"/><path d="m88.69 121.588a9.017 9.017 0 0 1 -8.466-5.922 9 9 0 1 1 8.466 5.922zm-6.59-6.606a7 7 0 1 0 4.183-8.972 7.009 7.009 0 0 0 -4.183 8.972z"/><path d="m109.625 104a8.956 8.956 0 0 1 -4.484-1.2 9.008 9.008 0 1 1 4.484 1.2zm-3.484-2.936a7 7 0 1 0 -2.562-9.562 7.007 7.007 0 0 0 2.562 9.562z"/><path d="m114.372 77.057a9.039 9.039 0 1 1 1.583-.14 9.033 9.033 0 0 1 -1.583.14zm.035-16a7.123 7.123 0 0 0 -1.23.107 7 7 0 0 0 2.43 13.788 7 7 0 0 0 -1.2-13.895z"/><path d="m100.705 53.354a9 9 0 1 1 6.9-3.21 8.982 8.982 0 0 1 -6.9 3.21zm.012-15.993a7 7 0 1 0 4.494 1.634 6.99 6.99 0 0 0 -4.494-1.634z"/></svg>