<svg height="512" viewBox="0 0 32 32" width="512" xmlns="http://www.w3.org/2000/svg"><g id="return"><g><g><path d="m5 30c-1.6542969 0-3-1.3457031-3-3v-19h20v19c0 1.6542969-1.3457031 3-3 3z" fill="#90caf9"/><path d="m22 30c-4.4111328 0-8-3.5888672-8-8s3.5888672-8 8-8 8 3.5888672 8 8-3.5888672 8-8 8z" fill="#e3f2fd"/></g><path d="m23 13.0585938v-6.0585938h-6v-1c0-2.7568359-2.2431641-5-5-5s-5 2.2431641-5 5v1h-6v20c0 2.2050781 1.7939453 4 4 4h14c.3916016 0 .7802734-.0771484 1.1542969-.1914063.5966797.1240235 1.2128906.1914063 1.8457031.1914063 4.9628906 0 9-4.0371094 9-9 0-4.6240234-3.5068359-8.4414062-8-8.9414062zm-14-7.0585938c0-1.6542969 1.3457031-3 3-3s3 1.3457031 3 3v1h-6zm-4 23c-1.1025391 0-2-.8964844-2-2v-18h4v2h2v-2h6v2h2v-2h4v4.0585938c-4.4931641.5-8 4.3173828-8 8.9414063 0 2.8261719 1.3115234 5.3486328 3.3554688 7h-11.3554688zm17 0c-3.859375 0-7-3.140625-7-7s3.140625-7 7-7 7 3.140625 7 7-3.140625 7-7 7zm4.5-6c0 2.2060547-1.7939453 4-4 4h-3v-2h3c1.1025391 0 2-.8974609 2-2s-.8974609-2-2-2h-1.5859375l1 1-1.4140625 1.4140625-3.4140625-3.4140625 3.4140625-3.4140625 1.4140625 1.4140625-1 1h1.5859375c2.2060547 0 4 1.7939453 4 4z" fill="#42a5f5"/></g></g></svg>