<svg height="512" viewBox="0 0 32 32" width="512" xmlns="http://www.w3.org/2000/svg"><g id="sopping_bag"><g><g><path d="m9 30c-1.6542969 0-3-1.3457031-3-3v-19h20v19c0 1.6542969-1.3457031 3-3 3z" fill="#90caf9"/></g><path d="m21 7v-1c0-2.7568359-2.2431641-5-5-5s-5 2.2431641-5 5v1h-6v20c0 2.2055664 1.7939453 4 4 4h14c2.2060547 0 4-1.7944336 4-4v-20zm-8-1c0-1.6542969 1.3457031-3 3-3s3 1.3457031 3 3v1h-6zm12 21c0 1.1030273-.8974609 2-2 2h-14c-1.1025391 0-2-.8969727-2-2v-18h4v2h2v-2h6v2h2v-2h4z" fill="#42a5f5"/></g></g></svg>