<?xml version="1.0" encoding="UTF-8"?>
<svg xmlns="http://www.w3.org/2000/svg" id="Layer_1" data-name="Layer 1" viewBox="0 0 150 150" width="512" height="512"><path d="M21,61A10.011,10.011,0,0,1,11,51V39H31V51A10.011,10.011,0,0,1,21,61ZM13,41V51a8,8,0,0,0,16,0V41Z"/><path d="M39,61A10.011,10.011,0,0,1,29,51V39H49V51A10.011,10.011,0,0,1,39,61ZM31,41V51a8,8,0,0,0,16,0V41Z"/><path d="M57,61A10.011,10.011,0,0,1,47,51V39H67V51A10.011,10.011,0,0,1,57,61ZM49,41V51a8,8,0,0,0,16,0V41Z"/><path d="M75,61A10.011,10.011,0,0,1,65,51V39H85V51A10.011,10.011,0,0,1,75,61ZM67,41V51a8,8,0,0,0,16,0V41Z"/><path d="M93,61A10.011,10.011,0,0,1,83,51V39h20V51A10.011,10.011,0,0,1,93,61ZM85,41V51a8,8,0,0,0,16,0V41Z"/><path d="M111,61a10.011,10.011,0,0,1-10-10V39h20V51A10.011,10.011,0,0,1,111,61Zm-8-20V51a8,8,0,0,0,16,0V41Z"/><path d="M129,61a10.011,10.011,0,0,1-10-10V39h20V51A10.011,10.011,0,0,1,129,61Zm-8-20V51a8,8,0,0,0,16,0V41Z"/><path d="M138,41a1,1,0,0,1-.773-.365L114.527,13H35.473l-22.7,27.635a1,1,0,0,1-1.546-1.269L34.527,11h80.946l23.3,28.366A1,1,0,0,1,138,41Z"/><path d="M30,41a1,1,0,0,1-.861-1.505l16.428-28a1,1,0,1,1,1.725,1.011l-16.429,28A1,1,0,0,1,30,41Z"/><path d="M48,41a1.015,1.015,0,0,1-.332-.056,1,1,0,0,1-.611-1.276l9.857-28a1,1,0,0,1,1.886.664l-9.857,28A1,1,0,0,1,48,41Z"/><path d="M66,41a1.181,1.181,0,0,1-.118-.006,1,1,0,0,1-.876-1.11l3.285-28a1,1,0,1,1,1.987.233l-3.286,28A1,1,0,0,1,66,41Z"/><path d="M84,41a1,1,0,0,1-.992-.883l-3.286-28a1,1,0,0,1,1.987-.233l3.285,28a1,1,0,0,1-.876,1.11A1.181,1.181,0,0,1,84,41Z"/><path d="M102,41a1,1,0,0,1-.943-.668l-9.857-28a1,1,0,0,1,1.886-.664l9.857,28a1,1,0,0,1-.611,1.276A1.015,1.015,0,0,1,102,41Z"/><path d="M120,41a1,1,0,0,1-.863-.494l-16.429-28a1,1,0,1,1,1.725-1.011l16.428,28A1,1,0,0,1,120,41Z"/><path d="M128,139H22a2,2,0,0,1-2-2V60a1,1,0,0,1,2,0v77H128V60a1,1,0,0,1,2,0v77A2,2,0,0,1,128,139Z"/><path d="M69,139H32V88.5A1.5,1.5,0,0,1,33.5,87h34A1.5,1.5,0,0,1,69,88.5Zm-35-2H67V89H34Z"/><path d="M119.5,100h-42A1.5,1.5,0,0,1,76,98.5v-28A1.5,1.5,0,0,1,77.5,69h42a1.5,1.5,0,0,1,1.5,1.5v28A1.5,1.5,0,0,1,119.5,100ZM78,98h41V71H78Z"/></svg>
