<svg height="512" viewBox="0 0 32 32" width="512" xmlns="http://www.w3.org/2000/svg"><g id="store"><g><g><path d="m5 11h22v19h-22z" fill="#e3f2fd"/><path d="m12.5 16c-1.9296875 0-3.5-1.5703125-3.5-3.5v-1.5h7v1.5c0 1.9296875-1.5703125 3.5-3.5 3.5z" fill="#90caf9"/><path d="m5.5 16c-1.9296875 0-3.5-1.5703125-3.5-3.5v-1.5h7v1.5c0 1.9296875-1.5703125 3.5-3.5 3.5z" fill="#e3f2fd"/><path d="m19.5 16c-1.9296875 0-3.5-1.5703125-3.5-3.5v-1.5h7v1.5c0 1.9296875-1.5703125 3.5-3.5 3.5z" fill="#e3f2fd"/><g fill="#90caf9"><path d="m26.5 16c-1.9296875 0-3.5-1.5703125-3.5-3.5v-1.5h7v1.5c0 1.9296875-1.5703125 3.5-3.5 3.5z"/><path d="m9 20h6v10h-6z"/><path d="m19 20h4v4h-4z"/><path d="m5 6v-2.5c0-.8271484.6728516-1.5 1.5-1.5h19c.8271484 0 1.5.6728516 1.5 1.5v2.5z"/></g><path d="m2 11 3-5h22l3 5z" fill="#e3f2fd"/></g><path d="m30.8574219 10.4853516-2.8574219-4.7626953v-.7226563-1.5c0-1.3789062-1.121582-2.5-2.5-2.5h-19c-1.378418 0-2.5 1.1210938-2.5 2.5v1.5.7226563l-2.8574219 4.7626953c-.0932617.1552734-.1425781.3330078-.1425781.5146484v1.5c0 1.953125 1.2578125 3.6025391 3 4.2236328v14.2763672h24v-14.2763672c1.7421875-.6210937 3-2.2705078 3-4.2236328v-1.5c0-.1816406-.0493164-.359375-.1425781-.5146484zm-20.8574219 1.5146484h5v.5c0 1.3789063-1.121582 2.5-2.5 2.5s-2.5-1.1210937-2.5-2.5zm7 0h5v.5c0 1.3789063-1.121582 2.5-2.5 2.5s-2.5-1.1210937-2.5-2.5zm-13.2333984-2 1.7998047-3h20.8671875l1.7998047 3zm2.2333984-6.5c0-.2714844.2290039-.5.5-.5h19c.2709961 0 .5.2285156.5.5v1.5h-20zm-3 9v-.5h5v.5c0 1.3789063-1.121582 2.5-2.5 2.5s-2.5-1.1210937-2.5-2.5zm11 16.5h-4v-8h4zm2 0v-10h-8v10h-2v-12.0507812c1.2138672-.1367188 2.2739258-.7480469 3-1.6552734.8251953 1.0312499 2.0791016 1.7060546 3.5 1.7060546s2.6748047-.6748047 3.5-1.7060547c.8251953 1.03125 2.0791016 1.7060547 3.5 1.7060547s2.6748047-.6748047 3.5-1.7060547c.7260742.9072266 1.7861328 1.5185547 3 1.6552734v12.0507813zm10.5-14c-1.378418 0-2.5-1.1210938-2.5-2.5v-.5h5v.5c0 1.3789063-1.121582 2.5-2.5 2.5zm-8.5 10h6v-6h-6zm2-4h2v2h-2z" fill="#42a5f5"/></g></g></svg>