<svg id="Layer_1" height="512" viewBox="0 0 150 150" width="512" xmlns="http://www.w3.org/2000/svg" data-name="Layer 1"><path d="m126.537 116h-115.729l.438-1.315c.061-.184 6.3-18.552 23.391-36.64 15.763-16.691 44.257-36.59 90.463-36.608a7.708 7.708 0 0 1 7.675 6.389l6.319 37.614a8.57 8.57 0 0 1 -2.492 7.4 32.97 32.97 0 0 0 -10.009 22.22zm-112.906-2h111.032a35.313 35.313 0 0 1 10.537-22.587 6.556 6.556 0 0 0 1.919-5.654l-6.316-37.6a5.715 5.715 0 0 0 -5.7-4.72c-45.491.018-73.511 19.577-89.006 35.981a112.279 112.279 0 0 0 -22.466 34.58z"/><path d="m116.052 83.369h-61.172l1.644-1.7c13.623-14.052 35.129-22.93 62.193-25.669l1.192-.121-.1 1.2c-.18 2.263-1.806 22.205-3.49 25.729zm-56.382-2h55.065c1.161-3.652 2.454-16.895 2.987-23.256-24.922 2.709-44.906 10.723-58.052 23.256z"/><path d="m128.038 104.421h-110.55a1 1 0 0 1 0-2h110.55a1 1 0 0 1 0 2z"/><path d="m132.114 50.937a1 1 0 0 1 -.806-1.59l4.841-6.611a1.105 1.105 0 0 0 -.236-1.539l-6.774-4.98a1.1 1.1 0 0 0 -1.539.235l-4.842 6.613a1 1 0 1 1 -1.614-1.182l4.841-6.61a3.095 3.095 0 0 1 4.339-.668l6.773 4.979a3.109 3.109 0 0 1 .667 4.331l-4.842 6.613a1 1 0 0 1 -.808.409z"/><path d="m100.4 83.369a1 1 0 0 1 -1-1v-7.421h-12.7v7.421a1 1 0 0 1 -2 0v-7.895a1.527 1.527 0 0 1 1.525-1.526h13.644a1.527 1.527 0 0 1 1.526 1.526v7.895a1 1 0 0 1 -.995 1z"/><path d="m126.645 90.737a6.263 6.263 0 1 1 6.25-6.263 6.263 6.263 0 0 1 -6.25 6.263zm0-10.526a4.263 4.263 0 1 0 4.25 4.263 4.261 4.261 0 0 0 -4.25-4.263z"/></svg>