<svg id="Layer_1" height="512" viewBox="0 0 150 150" width="512" xmlns="http://www.w3.org/2000/svg" data-name="Layer 1"><path d="m44 76c-18.5 0-33-7.467-33-17s14.5-17 33-17 33 7.467 33 17-14.495 17-33 17zm0-32c-17.093 0-31 6.729-31 15s13.907 15 31 15 31-6.729 31-15-13.907-15-31-15z"/><path d="m44 68c-15.264 0-25-5.91-25-9s9.736-9 25-9 25 5.91 25 9-9.736 9-25 9zm0-16c-14.875 0-22.707 5.591-23 7.034.293 1.375 8.125 6.966 23 6.966s22.707-5.591 23-7.034c-.293-1.375-8.125-6.966-23-6.966z"/><path d="m44 108c-18.5 0-33-7.467-33-17v-32a1 1 0 0 1 2 0v32c0 8.271 13.907 15 31 15s31-6.729 31-15v-33h64v34h-62.054c-.972 9.05-15.093 16-32.946 16zm33-18h60v-30h-60z"/><path d="m83 65a1 1 0 0 1 -1-1v-5a1 1 0 0 1 2 0v5a1 1 0 0 1 -1 1z"/><path d="m91 65a1 1 0 0 1 -1-1v-5a1 1 0 0 1 2 0v5a1 1 0 0 1 -1 1z"/><path d="m99 65a1 1 0 0 1 -1-1v-5a1 1 0 0 1 2 0v5a1 1 0 0 1 -1 1z"/><path d="m107 65a1 1 0 0 1 -1-1v-5a1 1 0 0 1 2 0v5a1 1 0 0 1 -1 1z"/><path d="m115 65a1 1 0 0 1 -1-1v-5a1 1 0 0 1 2 0v5a1 1 0 0 1 -1 1z"/><path d="m123 65a1 1 0 0 1 -1-1v-5a1 1 0 0 1 2 0v5a1 1 0 0 1 -1 1z"/><path d="m131 65a1 1 0 0 1 -1-1v-5a1 1 0 0 1 2 0v5a1 1 0 0 1 -1 1z"/><path d="m20 78a1 1 0 0 1 -1-1v-7a1 1 0 0 1 2 0v7a1 1 0 0 1 -1 1z"/><path d="m28 81a1 1 0 0 1 -1-1v-7a1 1 0 0 1 2 0v7a1 1 0 0 1 -1 1z"/><path d="m36 83a1 1 0 0 1 -1-1v-7a1 1 0 0 1 2 0v7a1 1 0 0 1 -1 1z"/><path d="m44 83a1 1 0 0 1 -1-1v-7a1 1 0 0 1 2 0v7a1 1 0 0 1 -1 1z"/><path d="m52 83a1 1 0 0 1 -1-1v-7a1 1 0 0 1 2 0v7a1 1 0 0 1 -1 1z"/><path d="m60 81a1 1 0 0 1 -1-1v-7a1 1 0 0 1 2 0v7a1 1 0 0 1 -1 1z"/><path d="m68 78a1 1 0 0 1 -1-1v-7a1 1 0 0 1 2 0v7a1 1 0 0 1 -1 1z"/></svg>