<svg height="512" viewBox="0 0 32 32" width="512" xmlns="http://www.w3.org/2000/svg"><g id="promotion"><g><g><path d="m5 17c-1.6542969 0-3-1.3457031-3-3s1.3457031-3 3-3z" fill="#e3f2fd"/><path d="m10 26-2-7h3l2 7z" fill="#e3f2fd"/><path d="m7 19c-1.1025391 0-2-.8974609-2-2v-6c0-1.1025391.8974609-2 2-2h5v10z" fill="#90caf9"/><path d="m24 22-2.3232422-1.6621094-.0742188-.0361328c-1.4687499-.7177734-3.9824218-1.3017578-5.602539-1.3017578h-4v-10h4c1.6201172 0 4.1337891-.5839844 5.6025391-1.3017578l.0742188-.0361328 2.3232421-1.6621094h1v16z" fill="#e3f2fd"/></g><path d="m26 12.2783203v-7.2783203h-2.3212891l-2.5107422 1.796875c-1.3515624.65625-3.6943359 1.203125-5.1679687 1.203125h-9c-1.3359375 0-2.4580078.8837891-2.8447266 2.09375-1.8007812.3896484-3.1552734 1.9902344-3.1552734 3.90625s1.3544922 3.5166016 3.1552734 3.90625c.3867188 1.2099609 1.5087891 2.09375 2.8447266 2.09375h.2451172l2.0009766 7h5.0800781l-2-7h3.6738281c1.4736328 0 3.8164063.546875 5.1679688 1.203125l2.5107421 1.796875h2.3212891v-7.2783203c.5947266-.3466797 1-.9853516 1-1.7216797s-.4052734-1.375-1-1.7216797zm-23 1.7216797c0-.7363281.4052734-1.375 1-1.7216797v3.4433594c-.5947266-.3466797-1-.9853516-1-1.7216797zm3 3v-6c0-.5517578.4482422-1 1-1h4v8h-4c-.5517578 0-1-.4482422-1-1zm5.6738281 8h-.9199219l-1.4277344-5h.9189453zm12.3261719-4.2294922-1.734375-1.2421875-.1347656-.0810547c-1.6230469-.8115234-4.3164063-1.4472656-6.1308594-1.4472656h-3v-8h3c1.8144531 0 4.5078125-.6357422 6.1308594-1.4472656l1.8691406-1.3232422zm7-7.7705078v2h-3v-2zm-2.7978516-1.6337891-1.0009766-1.7314453 2.5966797-1.5009766 1.0009766 1.7314453zm0 5.2675782 2.5966797 1.5009766-1.0009766 1.7314453-2.5966797-1.5009766z" fill="#42a5f5"/></g></g></svg>