<svg height="512" viewBox="0 0 32 32" width="512" xmlns="http://www.w3.org/2000/svg"><g id="star"><g><g><path d="m23.8515625 30c-.5253906 0-1.0527344-.1708984-1.4106445-.456543l-6.440918-5.152832-6.440918 5.152832c-.3452148.2758789-.8774414.4404297-1.4248047.4404297-.4008789 0-.7705078-.0888672-1.0395508-.2504883-.7021484-.4208984-1.0668945-1.4160156-.8134765-2.21875l2.5947266-8.2128906-5.8818359-4.2011719c-.6733398-.480957-1.0214844-1.5507813-.7602539-2.3364258l.0527344-.15625c.262207-.7861328 1.1816406-1.4482422 2.0092773-1.4482422h7.6333008l1.8505859-7.4018555c.2416992-.9697265 1.2441406-1.7578124 2.2353515-1.7578124.9907227 0 1.9912109.7890625 2.2299805 1.7587891l1.8256836 7.4008789h7.6333008c.8276367 0 1.7475586.6630859 2.0092773 1.4482422l.0522461.1557617c.2612305.784668-.0864258 1.855957-.7597656 2.3369141l-5.8818359 4.2011719 2.5947266 8.2128906c.253418.8027344-.1113281 1.7978516-.8129883 2.2182617-.2910157.1748046-.6552735.2670898-1.0541993.2670898z" fill="#e3f2fd"/></g><path d="m23.8515625 31c-.7558594 0-1.4975586-.2460938-2.034668-.675293l-5.8168945-4.6533203-5.8164063 4.652832c-.949707.7597656-2.5761719.8833008-3.6035156.2666016-1.0932617-.6552734-1.6435547-2.1391602-1.2524414-3.3774414l2.3759766-7.5200195-5.2905273-3.7788086c-1.0336914-.7382813-1.5288086-2.2607422-1.1279297-3.4658203l.0537109-.159668c.3974609-1.1928711 1.6967773-2.1293945 2.9570313-2.1293945h6.8525391l1.6611328-6.6445313c.3515624-1.4101562 1.7597655-2.5151367 3.2055663-2.5151367 1.4467773 0 2.8530273 1.1069336 3.2011719 2.5195313l1.6376953 6.6401367h6.8500977c1.2602539 0 2.5595703.9365234 2.9580078 2.1318359l.0517578.1542969c.4018555 1.2080078-.0932617 2.7304688-1.1269531 3.46875l-5.2905273 3.7788086 2.3759766 7.5200195c.3911133 1.2382813-.1591797 2.722168-1.2524414 3.3774414-.4458009.2675781-.9882814.4091797-1.5683595.4091797zm-7.8515625-7.8901367 7.0654297 5.652832c.3115234.2480469 1.0053711.3041992 1.3261719.1132813.3061523-.1835938.487793-.6987305.3735352-1.0600586l-2.8134766-8.9057617 6.4731445-4.6235352c.3237305-.230957.5180664-.8286133.3925781-1.2060547l-.0517578-.1538086c-.1293945-.3881836-.6547852-.7670898-1.0615234-.7670898h-8.4165039l-2.0131836-8.1616211c-.1289063-.522461-.7290039-.9980469-1.2592774-.9980469-.5317383 0-1.1347656.4765625-1.2651367 1l-2.0400391 8.159668h-8.4140625c-.4067383 0-.9321289.3789063-1.0605469.7646484l-.0537109.1591797c-.1245117.3745117.0698242.972168.3935547 1.203125l6.4731445 4.6235352-2.8134765 8.9057617c-.1142578.3613281.0673828.8764648.3735352 1.0600586.3193359.190918 1.0141602.1347656 1.3266602-.1137695z" fill="#42a5f5"/></g></g></svg>