<svg width="913" height="913" viewBox="0 0 913 913" fill="none" xmlns="http://www.w3.org/2000/svg">
<circle cx="456.5" cy="456.5" r="456.5" fill="black"/>
<path d="M300.383 322.959C300.383 241.837 365.486 220.167 470.077 216H614.158C212.914 413.249 555.846 606.331 614.158 377.828C660.808 195.025 819.257 300.039 836.612 341.712C883.817 400.053 859.07 623 600.275 623C276.78 623 300.383 424.362 300.383 322.959Z" fill="white"/>
<path d="M216 223.276C274.4 223.276 290 270.167 293 345.5L293 449.276C195.122 230.928 97.0265 314.335 115.191 389C121.25 413.906 140.245 437.84 176.5 449.276C306.03 490.134 232.5 597 202.5 609.5C160.5 643.5 -3.49283e-05 625.676 -3.49283e-05 439.276C-3.49283e-05 206.276 143 223.276 216 223.276Z" fill="white"/>
<path d="M220.5 399.796C220.5 419.955 204.158 436.296 184 436.296C163.842 436.296 147.5 419.955 147.5 399.796C147.5 379.638 163.842 363.296 184 363.296C204.158 363.296 220.5 379.638 220.5 399.796Z" fill="white"/>
<path d="M893 586.5C893 606.658 876.658 623 856.5 623C836.342 623 820 606.658 820 586.5C820 566.342 836.342 550 856.5 550C876.658 550 893 566.342 893 586.5Z" fill="white"/>
</svg>
