<svg width="893" height="408" viewBox="0 0 893 408" fill="none" xmlns="http://www.w3.org/2000/svg">
<path d="M300.383 106.959C300.383 25.8369 365.486 4.16724 470.077 0H614.158C212.914 197.249 555.846 390.331 614.158 161.828C660.808 -20.9751 819.257 84.0392 836.612 125.712C883.817 184.053 859.07 407 600.275 407C276.78 407 300.383 208.362 300.383 106.959Z" fill="white"/>
<path d="M216 7.27567C274.4 7.27567 290 54.1667 293 129.5L293 233.276C195.122 14.9283 97.0265 98.3351 115.191 173C121.25 197.906 140.245 221.84 176.5 233.276C306.03 274.134 232.5 381 202.5 393.5C160.5 427.5 -3.49283e-05 409.676 -3.49283e-05 223.276C-3.49283e-05 -9.72434 143 7.27567 216 7.27567Z" fill="white"/>
<path d="M220.5 183.796C220.5 203.955 204.158 220.296 184 220.296C163.842 220.296 147.5 203.955 147.5 183.796C147.5 163.638 163.842 147.296 184 147.296C204.158 147.296 220.5 163.638 220.5 183.796Z" fill="white"/>
<path d="M893 370.5C893 390.658 876.658 407 856.5 407C836.342 407 820 390.658 820 370.5C820 350.342 836.342 334 856.5 334C876.658 334 893 350.342 893 370.5Z" fill="white"/>
</svg>
